<svg xmlns="http://www.w3.org/2000/svg" viewBox="185 440 660 140">
<path fill="#030303" d="
M216.203278,565.659180
	C215.069748,564.664490 214.218460,563.920410 212.707260,562.599487
	C212.474457,565.723755 212.287964,568.226685 212.080566,571.009888
	C204.605957,571.009888 197.212433,571.009888 189.743256,571.009888
	C189.743256,531.678284 189.743256,492.569153 189.743256,453.191711
	C197.581772,453.191711 205.176254,453.191711 213.330002,453.191711
	C213.330002,466.470428 213.330002,479.815399 213.330002,494.266968
	C220.312363,487.848846 227.669785,484.755432 235.961243,484.014984
	C260.687622,481.806824 278.650970,496.340057 282.601898,521.693726
	C287.853638,555.394836 258.169250,581.362122 226.128204,570.961365
	C222.725891,569.856934 219.690903,567.620850 216.203278,565.659180
M215.036804,540.216125
	C221.356598,551.891846 232.778732,556.416443 244.397430,551.846619
	C255.713699,547.395752 261.347473,534.175781 257.586304,520.898132
	C254.440125,509.791473 245.054306,503.226593 233.579071,504.106354
	C222.398743,504.963501 213.687790,513.337402 213.028091,524.819336
	C212.750183,529.656128 214.140381,534.588867 215.036804,540.216125
z"/>
<path fill="#030303" d="
M600.968506,551.999634
	C600.968811,518.858582 600.968811,486.217468 600.968811,453.253662
	C608.912903,453.253662 616.646423,453.253662 624.779297,453.253662
	C624.779297,466.647095 624.779297,480.070801 624.779297,493.175507
	C630.700012,490.392731 636.150940,486.686340 642.151062,485.205902
	C670.341797,478.250366 693.801086,497.529510 694.440186,527.649170
	C695.109985,559.215881 667.543152,580.497253 638.021118,570.950928
	C633.245911,569.406860 628.947510,566.388306 624.229797,563.948486
	C624.104919,565.930908 623.946106,568.452942 623.775269,571.165405
	C616.149231,571.165405 608.695862,571.165405 600.968201,571.165405
	C600.968201,564.799316 600.968201,558.649414 600.968506,551.999634
M657.265381,551.063538
	C667.625305,545.440186 672.398926,534.292786 669.591431,522.279602
	C667.082520,511.543945 659.102966,504.566376 648.729858,504.037537
	C639.043335,503.543701 630.916565,508.259094 626.862366,516.725708
	C622.274353,526.307007 623.771484,538.694214 630.429138,546.237610
	C636.607483,553.237915 645.896423,555.058167 657.265381,551.063538
z"/>
<path fill="#030303" d="
M372.864685,487.748291
	C376.354431,479.606293 379.620972,471.780762 383.152710,464.076782
	C383.765350,462.740387 385.464783,461.051880 386.721588,461.001312
	C393.993927,460.708771 401.283997,460.858459 409.110077,460.858459
	C401.739624,477.809326 394.514740,494.205078 387.472717,510.678986
	C379.434875,529.482422 371.486938,548.325439 363.684174,567.227356
	C362.349670,570.460083 360.711365,571.732422 357.126373,571.516174
	C351.316742,571.165833 345.457062,571.645569 339.647308,571.296143
	C337.982758,571.195984 335.538483,569.819336 334.935150,568.398315
	C319.874939,532.925781 305.013672,497.368805 289.758789,460.971527
	C298.515015,460.971527 306.551605,460.789032 314.561005,461.173096
	C315.729950,461.229126 317.102722,463.845459 317.818298,465.517914
	C327.886322,489.049377 337.854706,512.623474 347.857117,536.183044
	C348.307526,537.243896 348.851196,538.265198 349.746674,540.126404
	C357.595886,522.361511 365.163605,505.233734 372.864685,487.748291
z"/>
<path fill="#050505" d="
M805.424316,552.929749
	C811.803162,550.563721 817.744446,548.236755 824.615479,545.545715
	C827.640869,548.770996 831.701843,553.100159 836.444336,558.155945
	C832.842712,561.102478 829.794617,564.590759 825.965393,566.559937
	C807.531799,576.039246 788.917664,575.920227 771.412048,564.676880
	C755.558228,554.494446 749.455322,534.311829 754.893127,514.577332
	C759.533508,497.736847 774.965820,485.591919 793.459412,484.026794
	C829.580566,480.969757 845.806702,509.994659 841.438843,535.741516
	C830.863953,535.741516 820.228149,535.741516 809.592346,535.741516
	C798.939941,535.741516 788.287598,535.741516 777.623047,535.741516
	C778.188599,544.575684 786.265381,551.934998 796.504639,552.929871
	C799.306824,553.202148 802.158020,552.969666 805.424316,552.929749
M785.551208,521.161011
	C796.634644,521.161011 807.718140,521.161011 818.854248,521.161011
	C817.417786,509.055786 809.293030,502.294403 797.190613,502.678772
	C786.045410,503.032745 777.871216,510.423553 777.123962,521.158752
	C779.618103,521.158752 782.095642,521.158752 785.551208,521.161011
z"/>
<path fill="#040404" d="
M518.203613,504.447021
	C510.570923,503.813324 503.324127,503.254547 496.066864,502.929382
	C494.660217,502.866333 492.795807,503.300537 491.871643,504.230164
	C489.998901,506.114075 487.394684,508.495453 487.397156,510.669128
	C487.399567,512.777771 489.883820,516.008362 491.992035,516.770020
	C497.417633,518.730164 503.241760,519.582458 508.900452,520.903870
	C513.106995,521.886169 517.353027,522.740601 521.496948,523.943176
	C543.252258,530.256409 540.499939,554.415710 529.471313,563.696228
	C523.089844,569.066223 515.632935,571.523132 507.558167,572.432617
	C491.916870,574.194397 477.172241,571.371155 462.923218,563.690430
	C465.291046,557.721130 467.516846,552.109741 469.877930,546.157410
	C479.654968,552.404480 489.982574,555.045349 501.002411,554.801514
	C503.952332,554.736328 507.273254,554.565979 509.711090,553.185303
	C511.948364,551.918213 514.583313,548.929749 514.543091,546.745789
	C514.502747,544.557251 511.763123,541.263245 509.513367,540.501770
	C504.207397,538.705750 498.470551,538.214050 492.943390,537.029541
	C488.725952,536.125732 484.474731,535.234192 480.390289,533.879517
	C459.634430,526.995789 461.319580,502.175232 473.225586,492.735321
	C479.307373,487.913177 486.237579,485.390900 493.788452,484.512451
	C507.743744,482.888916 521.262268,484.405701 534.605530,490.651031
	C532.326660,496.487610 530.168274,502.015564 527.893066,507.842743
	C524.701538,506.731934 521.643677,505.667664 518.203613,504.447021
z"/>
<path fill="#030303" d="
M734.663452,453.023743
	C735.357056,454.374878 735.781372,455.633270 735.783691,456.892456
	C735.853760,494.329681 735.882690,531.766968 735.910461,569.204285
	C735.910828,569.697266 735.812683,570.190369 735.723206,571.036377
	C727.872864,571.036377 720.015503,571.036377 712.005127,571.036377
	C712.005127,531.824036 712.005127,492.742554 712.005127,452.931366
	C719.378845,452.931366 726.788147,452.931366 734.663452,453.023743
z"/>
<path fill="#050505" d="
M577.250000,559.952271
	C577.249512,563.906128 577.249512,567.368713 577.249512,571.134399
	C569.218262,571.134399 561.482849,571.134399 553.478271,571.134399
	C553.478271,542.600037 553.478271,514.099670 553.478271,485.364563
	C561.362610,485.364563 568.954895,485.364563 577.250488,485.364563
	C577.250488,510.031830 577.250488,534.746460 577.250000,559.952271
z"/>
<path fill="#030303" d="
M422.069580,536.000000
	C422.067596,518.881104 422.067596,502.262177 422.067596,485.399414
	C430.120697,485.399414 437.722198,485.399414 445.757355,485.399414
	C445.757355,513.906189 445.757355,542.444275 445.757355,571.114502
	C437.983551,571.114502 430.199249,571.114502 422.071533,571.114502
	C422.071533,559.438416 422.071533,547.969238 422.069580,536.000000
z"/>
<path fill="#050505" d="
M423.498413,447.472290
	C429.120667,443.104218 434.994354,442.372223 441.163300,444.915741
	C446.052826,446.931793 448.605286,450.823364 449.123688,456.079895
	C449.648804,461.405151 447.622192,465.504852 443.206818,468.433838
	C436.924744,472.601074 427.227997,471.590485 422.491211,466.316284
	C417.811249,461.105469 418.079285,454.387177 423.498413,447.472290
z"/>
<path fill="#050505" d="
M553.713989,466.228760
	C549.745239,459.724762 549.808960,453.478394 553.645020,448.821075
	C557.447021,444.205048 565.443481,442.422760 571.499268,444.841797
	C576.832336,446.972107 580.232056,452.300903 580.040161,458.229156
	C579.707092,468.519684 567.416687,474.527924 557.504395,469.192780
	C556.214355,468.498444 555.134766,467.413116 553.713989,466.228760
z"/>
</svg>
