<svg version="1.1" id="Layer_1" xmlns="http://www.w3.org/2000/svg" xmlns:xlink="http://www.w3.org/1999/xlink" x="0px" y="0px"
	 width="100%" viewBox="0 0 1024 1024" enable-background="new 0 0 1024 1024" xml:space="preserve">
<path fill="#000000" opacity="1.000000" stroke="none" 
	d="
M435.660675,696.467834 
	C424.293579,691.266724 414.562378,684.459412 406.029999,675.782593 
	C389.908386,659.388062 373.943939,642.810303 357.225037,627.039185 
	C336.658386,607.638489 327.370178,583.739441 326.992554,556.066101 
	C326.633392,529.742737 326.212402,503.389709 327.060333,477.089783 
	C327.788940,454.491211 335.277618,434.062592 351.649170,417.576691 
	C370.198334,398.897949 388.508636,379.979767 407.196503,361.441559 
	C424.776611,344.002319 446.192108,334.997833 470.960449,334.747314 
	C498.785309,334.465820 526.616577,334.850616 554.442383,334.617279 
	C579.603149,334.406311 601.096924,343.289398 618.980042,360.562683 
	C638.991882,379.892120 658.812439,399.444061 678.085449,419.505096 
	C690.906250,432.850037 697.270752,449.681335 700.304199,467.818329 
	C701.244446,473.440277 701.337463,479.075409 701.334045,484.739197 
	C701.318909,509.734100 701.499146,534.730469 701.283569,559.723511 
	C701.076233,583.766724 692.599487,604.618774 675.779541,621.873779 
	C657.407043,640.721497 639.034058,659.574097 620.356384,678.117493 
	C603.653320,694.700439 582.965088,703.219543 559.719971,704.018433 
	C530.092041,705.036499 500.417480,704.958008 470.764587,704.862061 
	C458.685181,704.822998 447.033051,701.738647 435.660675,696.467834 
M475.093506,443.672699 
	C466.012512,448.252716 457.142426,453.199707 448.661407,458.827179 
	C446.840576,460.035400 445.088165,461.280060 444.252472,463.436035 
	C436.912506,482.372772 429.213623,501.185303 425.132141,521.209351 
	C424.635803,523.644409 424.897797,525.825989 425.733215,528.020569 
	C432.682068,546.274719 440.998322,563.860168 451.171448,580.563904 
	C453.442932,584.293518 456.425323,586.792114 460.328094,588.652710 
	C476.175964,596.207764 492.699310,601.895447 509.633789,606.331177 
	C513.980408,607.469788 518.346558,609.946411 523.233521,608.050598 
	C542.690613,600.502258 561.632935,591.942200 579.010742,580.226868 
	C581.275513,578.700073 583.049133,576.900574 584.181396,574.329041 
	C591.511475,557.682190 597.625366,540.600281 602.409180,523.060913 
	C603.436951,519.292603 604.683411,515.444641 603.141052,511.315582 
	C595.890015,491.904846 586.867798,473.361298 576.273499,455.569183 
	C574.970520,453.380951 573.327026,451.645935 570.866150,450.612183 
	C553.655579,443.382294 536.201355,436.876038 518.187500,431.884003 
	C511.039062,429.902985 504.362762,429.564423 497.501434,433.241943 
	C490.470215,437.010590 483.027069,440.010681 475.093506,443.672699 
M576.460205,350.103973 
	C569.701294,348.176849 562.813843,347.189270 555.779419,347.196198 
	C530.639648,347.220978 505.499878,347.214874 480.360229,347.269684 
	C478.613434,347.273499 476.721741,346.758606 475.156952,347.944061 
	C474.954987,349.278625 475.900696,349.828247 476.615448,350.452820 
	C503.812836,374.219727 530.753662,398.290649 558.333313,421.605713 
	C573.872498,434.742096 588.431213,448.338562 596.834351,467.337952 
	C598.344482,470.752472 600.238281,473.997314 601.954956,477.320496 
	C602.799255,475.451935 602.865601,473.847351 602.788757,472.249695 
	C602.149414,458.959747 601.418701,445.673889 600.841492,432.381378 
	C600.040527,413.934113 599.538940,395.471954 598.558777,377.034821 
	C597.508423,357.277161 596.542542,356.299927 576.460205,350.103973 
M535.499634,691.833557 
	C541.865479,691.833557 548.231323,691.833557 555.363831,691.833557 
	C554.337524,690.453247 554.106384,689.993835 553.747498,689.680847 
	C522.617859,662.534729 491.759674,635.066223 460.189331,608.442322 
	C448.899017,598.920898 440.831940,587.534790 434.011932,574.868042 
	C431.400269,570.017456 428.929382,565.091064 425.899567,559.244385 
	C427.401825,590.038818 428.836212,619.611328 430.292053,649.182678 
	C430.733948,658.158020 431.278412,667.128540 431.684723,676.105347 
	C431.818634,679.063721 433.057617,680.910156 435.737549,682.354370 
	C447.400818,688.639893 459.684631,692.061157 473.031494,691.928284 
	C493.519196,691.724243 514.010193,691.849609 535.499634,691.833557 
M391.507629,642.992493 
	C400.245361,651.699951 408.983063,660.407410 418.408936,669.800598 
	C417.425110,648.535156 416.532745,628.434937 415.553711,608.338928 
	C414.752075,591.884338 413.938904,575.429443 412.962860,558.984619 
	C411.946869,541.866394 410.570526,524.765076 415.894318,508.003754 
	C417.931396,501.590302 419.657776,495.078125 421.525726,488.610931 
	C415.617432,494.071533 410.436859,499.889679 405.227692,505.682159 
	C385.075928,528.090454 364.932922,550.506653 344.729401,572.868286 
	C342.756927,575.051392 342.116730,577.058777 342.953430,580.058838 
	C346.424347,592.504028 352.319733,603.523682 361.404419,612.740601 
	C371.225159,622.704224 381.142975,632.572083 391.507629,642.992493 
M380.256256,406.755676 
	C374.167694,412.760529 368.079132,418.765381 361.110626,425.638062 
	C364.768738,425.638062 366.905304,425.762024 369.023804,425.618774 
	C388.614777,424.294098 408.201447,422.906311 427.791687,421.570831 
	C446.383820,420.303375 465.019989,419.500946 483.559570,417.699493 
	C498.763092,416.222290 513.411743,417.970367 527.901184,422.296722 
	C533.428711,423.947174 538.949219,425.621033 545.930054,427.722931 
	C541.930847,424.220917 539.070435,421.720642 536.214905,419.214752 
	C510.930847,397.026154 485.608185,374.881165 460.419281,352.585052 
	C457.598511,350.088226 455.076599,349.391785 451.446106,350.356293 
	C438.611206,353.766144 427.238190,359.754303 417.788208,369.085571 
	C405.343750,381.373840 393.090027,393.855225 380.256256,406.755676 
M547.633423,667.856079 
	C555.182983,674.395508 562.752197,680.912537 570.266479,687.492126 
	C571.876099,688.901489 573.343689,689.526306 575.636475,688.914795 
	C587.242554,685.819336 597.962219,680.956543 606.790405,672.724854 
	C626.889954,653.983459 645.397156,633.640503 664.992737,614.388062 
	C665.456421,613.932495 665.881348,613.372864 665.340759,612.529297 
	C663.772217,612.529297 662.117554,612.419250 660.481506,612.546997 
	C649.204468,613.427673 637.936340,614.428040 626.655762,615.258301 
	C600.771240,617.163330 574.873291,618.890930 548.996399,620.892639 
	C533.987305,622.053772 519.126099,622.180542 504.565918,617.555481 
	C497.891876,615.435425 491.148010,613.535400 484.435822,611.535522 
	C484.267639,611.834290 484.099457,612.132996 483.931274,612.431702 
	C504.990143,630.748901 526.049011,649.066040 547.633423,667.856079 
M565.626465,606.704163 
	C573.087952,606.102234 580.545349,605.442932 588.011658,604.908752 
	C616.223083,602.890076 644.432922,600.842651 672.656189,599.002869 
	C676.358582,598.761475 678.316101,597.190979 679.930054,594.095947 
	C685.665100,583.098145 688.588745,571.378540 688.679688,559.060547 
	C688.861694,534.412537 688.747131,509.762390 688.718079,485.113159 
	C688.716614,483.866760 689.223877,482.453339 687.857666,481.181854 
	C682.796875,485.294952 678.914734,490.497559 674.599487,495.254517 
	C653.795532,518.187988 632.519531,540.728638 612.544861,564.366821 
	C598.304138,581.219482 582.330811,595.169922 562.228821,604.300781 
	C561.281433,604.731018 559.943726,604.974426 559.830383,606.734924 
	C561.527344,606.734924 563.152893,606.734924 565.626465,606.704163 
M385.664978,437.329529 
	C375.200378,438.007935 364.739471,438.755554 354.268494,439.314636 
	C351.744904,439.449402 350.345734,440.593933 349.234436,442.680359 
	C344.082092,452.353851 340.357605,462.535614 340.240875,473.555756 
	C339.958588,500.213562 340.046844,526.875366 340.021820,553.535583 
	C340.020813,554.619751 339.733185,555.907959 342.085876,557.432922 
	C342.866333,556.297424 343.660400,554.817261 344.750885,553.603455 
	C367.128937,528.693848 390.040070,504.241028 411.779083,478.786865 
	C427.577240,460.288757 444.729767,444.048248 467.198059,434.082550 
	C468.394592,433.551819 469.435486,432.670288 471.669922,431.228882 
	C442.351105,433.325256 414.478180,435.318207 385.664978,437.329529 
M617.028442,376.502716 
	C615.300842,375.123077 614.104126,373.019012 611.331177,372.006226 
	C611.331177,374.882355 611.253174,377.191681 611.343628,379.494415 
	C612.010254,396.468323 612.627441,413.444763 613.423096,430.412781 
	C614.233826,447.704315 614.645203,465.043427 616.301880,482.258728 
	C618.151428,501.478546 616.667297,520.102661 610.371582,538.360901 
	C609.000305,542.337708 608.037415,546.455383 606.602539,551.507629 
	C615.110657,542.015076 622.860901,533.333740 630.648682,524.686157 
	C648.151245,505.251221 665.656616,485.818848 683.208130,466.428223 
	C685.130920,464.303894 686.276245,462.191101 685.372437,459.238831 
	C681.772217,447.479279 676.867432,436.381256 668.090515,427.517242 
	C651.326294,410.586548 634.385803,393.830444 617.028442,376.502716 
z"/>
</svg>